<svg width="150" height="150" viewBox="0 0 150 150" fill="none" xmlns="http://www.w3.org/2000/svg">
<path d="M50 35H45C44.337 35 43.7011 34.7366 43.2322 34.2678C42.7634 33.7989 42.5 33.163 42.5 32.5C42.5 30.5109 41.7098 28.6032 40.3033 27.1967C38.8968 25.7902 36.9891 25 35 25C33.0109 25 31.1032 25.7902 29.6967 27.1967C28.2902 28.6032 27.5 30.5109 27.5 32.5C27.5 33.163 27.2366 33.7989 26.7678 34.2678C26.2989 34.7366 25.663 35 25 35H20C18.6739 35 17.4021 35.5268 16.4645 36.4645C15.5268 37.4021 15 38.6739 15 40C15 41.3261 15.5268 42.5979 16.4645 43.5355C17.4021 44.4732 18.6739 45 20 45H50C51.3261 45 52.5979 44.4732 53.5355 43.5355C54.4732 42.5979 55 41.3261 55 40C55 38.6739 54.4732 37.4021 53.5355 36.4645C52.5979 35.5268 51.3261 35 50 35Z" fill="#E5E5E5"/>
<path d="M57.2 0H12.825C11.1408 0 9.47309 0.331728 7.91708 0.976245C6.36108 1.62076 4.94727 2.56544 3.75636 3.75636C1.3512 6.16151 0 9.4236 0 12.825V57.2C0.00662198 60.5971 1.36075 63.8527 3.76518 66.2525C6.16962 68.6522 9.42793 70 12.825 70H57.2C60.5927 69.9934 63.8446 68.6427 66.2437 66.2437C68.6427 63.8446 69.9934 60.5927 70 57.2V12.825C70 9.42793 68.6522 6.16962 66.2525 3.76518C63.8527 1.36075 60.5971 0.00662198 57.2 0ZM50 50H20C17.3478 50 14.8043 48.9464 12.9289 47.0711C11.0536 45.1957 10 42.6522 10 40C10 37.3478 11.0536 34.8043 12.9289 32.9289C14.8043 31.0536 17.3478 30 20 30H22.75C23.3238 27.1743 24.8568 24.6338 27.0894 22.8091C29.3219 20.9843 32.1166 19.9875 35 19.9875C37.8834 19.9875 40.6781 20.9843 42.9106 22.8091C45.1432 24.6338 46.6762 27.1743 47.25 30H50C52.6522 30 55.1957 31.0536 57.0711 32.9289C58.9464 34.8043 60 37.3478 60 40C60 42.6522 58.9464 45.1957 57.0711 47.0711C55.1957 48.9464 52.6522 50 50 50Z" fill="#E5E5E5"/>
<path d="M137.2 0H92.825C89.4236 0 86.1615 1.3512 83.7564 3.75636C81.3512 6.16151 80 9.4236 80 12.825V57.2C80.0066 60.5971 81.3607 63.8527 83.7652 66.2525C86.1696 68.6522 89.4279 70 92.825 70H137.2C140.593 69.9934 143.845 68.6427 146.244 66.2437C148.643 63.8446 149.993 60.5927 150 57.2V12.825C150 9.42793 148.652 6.16962 146.252 3.76518C143.853 1.36075 140.597 0.00662198 137.2 0ZM125.6 20.85L129.15 17.325C129.628 16.9154 130.243 16.7014 130.873 16.7257C131.502 16.75 132.099 17.0109 132.544 17.4561C132.989 17.9013 133.25 18.4982 133.274 19.1274C133.299 19.7566 133.085 20.3717 132.675 20.85L129.15 24.4C128.918 24.6343 128.641 24.8203 128.336 24.9472C128.032 25.0742 127.705 25.1395 127.375 25.1395C127.045 25.1395 126.718 25.0742 126.414 24.9472C126.109 24.8203 125.832 24.6343 125.6 24.4C125.366 24.1676 125.18 23.8911 125.053 23.5864C124.926 23.2818 124.861 22.955 124.861 22.625C124.861 22.295 124.926 21.9682 125.053 21.6636C125.18 21.3589 125.366 21.0824 125.6 20.85ZM112.5 12.5C112.5 11.837 112.763 11.2011 113.232 10.7322C113.701 10.2634 114.337 10 115 10C115.663 10 116.299 10.2634 116.768 10.7322C117.237 11.2011 117.5 11.837 117.5 12.5V17.5C117.5 18.163 117.237 18.7989 116.768 19.2678C116.299 19.7366 115.663 20 115 20C114.337 20 113.701 19.7366 113.232 19.2678C112.763 18.7989 112.5 18.163 112.5 17.5V12.5ZM97.325 17.325C97.7934 16.8594 98.427 16.598 99.0875 16.598C99.748 16.598 100.382 16.8594 100.85 17.325L104.4 20.85C104.634 21.0824 104.82 21.3589 104.947 21.6636C105.074 21.9682 105.139 22.295 105.139 22.625C105.139 22.955 105.074 23.2818 104.947 23.5864C104.82 23.8911 104.634 24.1676 104.4 24.4C104.168 24.6343 103.891 24.8203 103.586 24.9472C103.282 25.0742 102.955 25.1395 102.625 25.1395C102.295 25.1395 101.968 25.0742 101.664 24.9472C101.359 24.8203 101.082 24.6343 100.85 24.4L97.325 20.85C96.8594 20.3816 96.598 19.748 96.598 19.0875C96.598 18.427 96.8594 17.7934 97.325 17.325ZM92.5 37.5C91.837 37.5 91.2011 37.2366 90.7322 36.7678C90.2634 36.2989 90 35.663 90 35C90 34.337 90.2634 33.7011 90.7322 33.2322C91.2011 32.7634 91.837 32.5 92.5 32.5H97.5C98.163 32.5 98.7989 32.7634 99.2678 33.2322C99.7366 33.7011 100 34.337 100 35C100 35.663 99.7366 36.2989 99.2678 36.7678C98.7989 37.2366 98.163 37.5 97.5 37.5H92.5ZM104.4 49.15L100.85 52.675C100.382 53.1406 99.748 53.402 99.0875 53.402C98.427 53.402 97.7934 53.1406 97.325 52.675C96.8594 52.2066 96.598 51.573 96.598 50.9125C96.598 50.252 96.8594 49.6184 97.325 49.15L100.85 45.6C101.321 45.1292 101.959 44.8648 102.625 44.8648C103.291 44.8648 103.929 45.1292 104.4 45.6C104.871 46.0708 105.135 46.7092 105.135 47.375C105.135 48.0408 104.871 48.6792 104.4 49.15ZM117.5 57.5C117.5 58.163 117.237 58.7989 116.768 59.2678C116.299 59.7366 115.663 60 115 60C114.337 60 113.701 59.7366 113.232 59.2678C112.763 58.7989 112.5 58.163 112.5 57.5V52.5C112.5 51.837 112.763 51.2011 113.232 50.7322C113.701 50.2634 114.337 50 115 50C115.663 50 116.299 50.2634 116.768 50.7322C117.237 51.2011 117.5 51.837 117.5 52.5V57.5ZM115 45C113.022 45 111.089 44.4135 109.444 43.3147C107.8 42.2159 106.518 40.6541 105.761 38.8268C105.004 36.9996 104.806 34.9889 105.192 33.0491C105.578 31.1093 106.53 29.3275 107.929 27.9289C109.327 26.5304 111.109 25.578 113.049 25.1921C114.989 24.8063 117 25.0043 118.827 25.7612C120.654 26.5181 122.216 27.7998 123.315 29.4443C124.414 31.0888 125 33.0222 125 35C125 37.6522 123.946 40.1957 122.071 42.0711C120.196 43.9464 117.652 45 115 45ZM132.675 52.675C132.207 53.1406 131.573 53.402 130.913 53.402C130.252 53.402 129.618 53.1406 129.15 52.675L125.6 49.15C125.367 48.9169 125.182 48.6402 125.056 48.3356C124.93 48.0311 124.865 47.7047 124.865 47.375C124.865 47.0454 124.93 46.7189 125.056 46.4144C125.182 46.1098 125.367 45.8331 125.6 45.6C125.833 45.3669 126.11 45.182 126.414 45.0559C126.719 44.9297 127.045 44.8648 127.375 44.8648C127.705 44.8648 128.031 44.9297 128.336 45.0559C128.64 45.182 128.917 45.3669 129.15 45.6L132.675 49.15C133.141 49.6184 133.402 50.252 133.402 50.9125C133.402 51.573 133.141 52.2066 132.675 52.675ZM137.5 37.5H132.5C131.837 37.5 131.201 37.2366 130.732 36.7678C130.263 36.2989 130 35.663 130 35C130 34.337 130.263 33.7011 130.732 33.2322C131.201 32.7634 131.837 32.5 132.5 32.5H137.5C138.163 32.5 138.799 32.7634 139.268 33.2322C139.737 33.7011 140 34.337 140 35C140 35.663 139.737 36.2989 139.268 36.7678C138.799 37.2366 138.163 37.5 137.5 37.5Z" fill="#E5E5E5"/>
<path d="M115 40C117.761 40 120 37.7614 120 35C120 32.2386 117.761 30 115 30C112.239 30 110 32.2386 110 35C110 37.7614 112.239 40 115 40Z" fill="#E5E5E5"/>
<path d="M57.2 80H12.825C11.1408 80 9.47309 80.3317 7.91708 80.9762C6.36108 81.6208 4.94727 82.5654 3.75636 83.7564C1.3512 86.1615 0 89.4236 0 92.825V137.2C0.00662198 140.597 1.36075 143.853 3.76518 146.252C6.16962 148.652 9.42793 150 12.825 150H57.2C60.5927 149.993 63.8446 148.643 66.2437 146.244C68.6427 143.845 69.9934 140.593 70 137.2V92.825C70 89.4279 68.6522 86.1696 66.2525 83.7652C63.8527 81.3607 60.5971 80.0066 57.2 80ZM59.275 118.225C59.5093 118.457 59.6953 118.734 59.8222 119.039C59.9492 119.343 60.0145 119.67 60.0145 120C60.0145 120.33 59.9492 120.657 59.8222 120.961C59.6953 121.266 59.5093 121.543 59.275 121.775C59.0426 122.009 58.7661 122.195 58.4614 122.322C58.1568 122.449 57.83 122.514 57.5 122.514C57.17 122.514 56.8432 122.449 56.5386 122.322C56.2339 122.195 55.9574 122.009 55.725 121.775L51.475 117.5H41.025L48.4 125H54.45C55.113 125 55.7489 125.263 56.2178 125.732C56.6866 126.201 56.95 126.837 56.95 127.5C56.95 128.163 56.6866 128.799 56.2178 129.268C55.7489 129.737 55.113 130 54.45 130H50V134.575C50 135.238 49.7366 135.874 49.2678 136.343C48.7989 136.812 48.163 137.075 47.5 137.075C46.837 137.075 46.2011 136.812 45.7322 136.343C45.2634 135.874 45 135.238 45 134.575V128.4L37.625 120.9V131.35L41.9 135.6C42.1343 135.832 42.3203 136.109 42.4472 136.414C42.5742 136.718 42.6395 137.045 42.6395 137.375C42.6395 137.705 42.5742 138.032 42.4472 138.336C42.3203 138.641 42.1343 138.918 41.9 139.15C41.6676 139.384 41.3911 139.57 41.0864 139.697C40.7818 139.824 40.455 139.889 40.125 139.889C39.795 139.889 39.4682 139.824 39.1636 139.697C38.8589 139.57 38.5824 139.384 38.35 139.15L35 136.025L31.775 139.275C31.3042 139.746 30.6658 140.01 30 140.01C29.3342 140.01 28.6958 139.746 28.225 139.275C27.7542 138.804 27.4898 138.166 27.4898 137.5C27.4898 136.834 27.7542 136.196 28.225 135.725L32.5 131.475V121.025L25.125 128.525V134.575C25.125 135.238 24.8616 135.874 24.3928 136.343C23.9239 136.812 23.288 137.075 22.625 137.075C21.962 137.075 21.3261 136.812 20.8572 136.343C20.3884 135.874 20.125 135.238 20.125 134.575V130H15.55C14.887 130 14.2511 129.737 13.7822 129.268C13.3134 128.799 13.05 128.163 13.05 127.5C13.05 126.837 13.3134 126.201 13.7822 125.732C14.2511 125.263 14.887 125 15.55 125H21.6L28.975 117.5H18.525L14.275 121.775C14.0426 122.009 13.7661 122.195 13.4614 122.322C13.1568 122.449 12.83 122.514 12.5 122.514C12.17 122.514 11.8432 122.449 11.5386 122.322C11.2339 122.195 10.9574 122.009 10.725 121.775C10.4907 121.543 10.3047 121.266 10.1778 120.961C10.0508 120.657 9.9855 120.33 9.9855 120C9.9855 119.67 10.0508 119.343 10.1778 119.039C10.3047 118.734 10.4907 118.457 10.725 118.225L13.975 115L10.725 111.775C10.2542 111.304 9.98977 110.666 9.98977 110C9.98977 109.334 10.2542 108.696 10.725 108.225C11.1958 107.754 11.8342 107.49 12.5 107.49C13.1658 107.49 13.8042 107.754 14.275 108.225L18.525 112.5H28.975L21.6 105H15.55C14.887 105 14.2511 104.737 13.7822 104.268C13.3134 103.799 13.05 103.163 13.05 102.5C13.05 101.837 13.3134 101.201 13.7822 100.732C14.2511 100.263 14.887 100 15.55 100H20.125V95.55C20.125 94.887 20.3884 94.2511 20.8572 93.7822C21.3261 93.3134 21.962 93.05 22.625 93.05C23.288 93.05 23.9239 93.3134 24.3928 93.7822C24.8616 94.2511 25.125 94.887 25.125 95.55V101.6L32.5 109.1V98.525L28.225 94.275C27.7542 93.8042 27.4898 93.1658 27.4898 92.5C27.4898 91.8342 27.7542 91.1958 28.225 90.725C28.6958 90.2542 29.3342 89.9898 30 89.9898C30.6658 89.9898 31.3042 90.2542 31.775 90.725L35 93.975L38.225 90.725C38.6958 90.2542 39.3342 89.9898 40 89.9898C40.6658 89.9898 41.3042 90.2542 41.775 90.725C42.2458 91.1958 42.5102 91.8342 42.5102 92.5C42.5102 93.1658 42.2458 93.8042 41.775 94.275L37.5 98.525V108.975L44.875 101.475V95.55C44.875 94.887 45.1384 94.2511 45.6072 93.7822C46.0761 93.3134 46.712 93.05 47.375 93.05C48.038 93.05 48.6739 93.3134 49.1428 93.7822C49.6116 94.2511 49.875 94.887 49.875 95.55V100.125H54.45C55.113 100.125 55.7489 100.388 56.2178 100.857C56.6866 101.326 56.95 101.962 56.95 102.625C56.95 103.288 56.6866 103.924 56.2178 104.393C55.7489 104.862 55.113 105.125 54.45 105.125H48.4L41.025 112.625H51.475L55.725 108.35C56.1958 107.879 56.8342 107.615 57.5 107.615C58.1658 107.615 58.8042 107.879 59.275 108.35C59.7458 108.821 60.0102 109.459 60.0102 110.125C60.0102 110.791 59.7458 111.429 59.275 111.9L56.025 115L59.275 118.225Z" fill="#E5E5E5"/>
<path d="M102.5 122.5C102.5 125.815 103.817 128.995 106.161 131.339C108.505 133.683 111.685 135 115 135C118.315 135 121.495 133.683 123.839 131.339C126.183 128.995 127.5 125.815 127.5 122.5C127.5 111.7 118.825 100.575 115 96.2C111.175 100.575 102.5 111.7 102.5 122.5Z" fill="#E5E5E5"/>
<path d="M137.2 80H92.825C89.4236 80 86.1615 81.3512 83.7564 83.7564C81.3512 86.1615 80 89.4236 80 92.825V137.2C80.0066 140.597 81.3607 143.853 83.7652 146.252C86.1696 148.652 89.4279 150 92.825 150H137.2C140.593 149.993 143.845 148.643 146.244 146.244C148.643 143.845 149.993 140.593 150 137.2V92.825C150 89.4279 148.652 86.1696 146.252 83.7652C143.853 81.3607 140.597 80.0066 137.2 80ZM115 140C110.359 140 105.908 138.156 102.626 134.874C99.3437 131.592 97.5 127.141 97.5 122.5C97.5 106.65 112.5 91.375 113.225 90.725C113.457 90.4907 113.734 90.3047 114.039 90.1778C114.343 90.0509 114.67 89.9855 115 89.9855C115.33 89.9855 115.657 90.0509 115.961 90.1778C116.266 90.3047 116.543 90.4907 116.775 90.725C117.5 91.375 132.5 106.65 132.5 122.5C132.5 127.141 130.656 131.592 127.374 134.874C124.092 138.156 119.641 140 115 140Z" fill="#E5E5E5"/>
</svg>
